<svg xmlns="http://www.w3.org/2000/svg" width="1248" height="320" viewBox="0 0 1248 320" role="img" aria-labelledby="title desc">
  <title id="title">Kwentaro horizontal wordmark</title>
  <desc id="desc">The jade tally K badge beside original rounded geometric lettering spelling Kwentaro, on warm paper.</desc>
  <rect width="1248" height="320" fill="#FBF7EF"/>
  <rect x="32" y="32" width="256" height="256" rx="64" fill="#0B5D4E"/>
  <g transform="translate(32 32) scale(2.3703703704)">
    <path fill="#FBF7EF" d="M38,30 H46 V78 L39.5,73 L33,78 V35 Q33,30 38,30 Z"/>
    <path fill="#F2A541" d="M50,44 L65,29 Q69,25 73,29 L76,32 Q79,35 76,38 L62,52 H50 Z"/>
    <path fill="#FBF7EF" d="M50,56 H62 L76,70 Q79,73 76,76 L73,79 Q69,83 65,79 L50,64 Z"/>
  </g>
  <!-- Original outlined lettering: no font dependency, embedded font, or external asset. -->
  <g transform="translate(344 96) scale(2)" fill="none" stroke="#0B5D4E" stroke-width="9" stroke-linecap="round" stroke-linejoin="round">
    <path aria-label="K" d="M3,0 V64 M13,31 L39,0 M13,41 L41,64"/>
    <path aria-label="w" transform="translate(58)" d="M0,24 L11,64 L26,35 L41,64 L52,24"/>
    <path aria-label="e" transform="translate(124)" d="M42,58 C35,66 19,69 8,60 C-4,50 -1,33 10,26 C23,17 42,25 44,39 Q45,44 41,44 H1"/>
    <path aria-label="n" transform="translate(184)" d="M2,64 V24 M2,40 C2,18 40,18 40,40 V64"/>
    <path aria-label="t" transform="translate(241)" d="M12,8 V51 Q12,65 29,63 M0,24 H27"/>
    <path aria-label="a" transform="translate(285)" d="M43,24 V64 M43,44 C43,16 0,16 0,44 C0,72 43,72 43,44"/>
    <path aria-label="r" transform="translate(344)" d="M2,64 V24 M2,40 Q2,22 25,24"/>
    <path aria-label="o" transform="translate(385)" d="M44,44 C44,16 0,16 0,44 C0,72 44,72 44,44 Z"/>
  </g>
</svg>
